<svg xmlns="http://www.w3.org/2000/svg" width="32" height="32" viewBox="0 0 32 32" fill="none">
  <rect width="32" height="32" rx="8" fill="url(#paint0_linear_1_2)"/>
  <path d="M22.6667 10.6667C22.6667 9.93333 22.0667 9.33333 21.3333 9.33333C20.6 9.33333 20 9.93333 20 10.6667C20 11.4 20.6 12 21.3333 12C22.0667 12 22.6667 11.4 22.6667 10.6667Z" fill="white"/>
  <path d="M24 13.3333H18.6667L17.3333 12H14.6667C14.3333 12 14 12.1333 13.7333 12.4L10.4 15.7333C10.1333 16 10 16.3333 10 16.6667C10 17 10.1333 17.3333 10.4 17.6L11.0667 18.2667L8.4 20.9333C8.13333 21.2 8.13333 21.6 8.4 21.8667L10.1333 23.6C10.4 23.8667 10.8 23.8667 11.0667 23.6L13.7333 20.9333L14.4 21.6C14.6667 21.8667 15 22 15.3333 22C15.6667 22 16 21.8667 16.2667 21.6L19.6 18.2667C19.8667 18 20 17.6667 20 17.3333V14.6667L21.3333 13.3333H24C24.3667 13.3333 24.6667 13.0333 24.6667 12.6667C24.6667 12.3 24.3667 12 24 12V13.3333ZM15.3333 20L12 16.6667L14.6667 14L18 17.3333L15.3333 20Z" fill="white"/>
  <defs>
    <linearGradient id="paint0_linear_1_2" x1="0" y1="0" x2="32" y2="32" gradientUnits="userSpaceOnUse">
      <stop stop-color="#0E8FE9"/>
      <stop offset="1" stop-color="#064D85"/>
    </linearGradient>
  </defs>
</svg> 